<?xml version="1.0" encoding="UTF-8"?><svg id="Ebene_1" xmlns="http://www.w3.org/2000/svg" viewBox="0 0 490.140426 129.0769"><path d="M23.98936,126.723594H0V.183011H38.639044c16.967653,0,30.033374,3.602728,39.189304,10.804743,8.7904,6.958821,13.185599,16.60458,13.185599,28.933837,0,7.937497-2.138152,15.262339-6.409544,21.975017-3.663158,5.739897-8.121244,9.951841-13.368364,12.635831l-3.47941,1.465067,24.355873,50.726089h-25.454427l-22.158764-46.880166H23.98936v46.880166Zm0-69.588207h21.975017c5.493754,0,10.375344-1.341749,14.649683-4.028688,5.005399-3.050011,7.50908-7.324842,7.50908-12.818596,0-6.712678-2.747368-11.720042-8.241123-15.016687-4.640852-2.806816-10.620996-4.211944-17.946329-4.211944H23.98936V57.135387Z"/><path d="M317.375289,34.061816l-36.441935,92.661778h-25.087915l-36.442918-92.661778h24.355873l24.722385,62.812152,25.271662-62.812152h23.622848Z"/><path d="M388.12206,33.512048h24.538637V125.441784h-24.538637v-11.537277c-1.099537,1.345189-2.260978,2.564112-3.47941,3.662667-1.831579,1.71121-3.726045,3.176276-5.677502,4.3952-5.127242,3.176276-10.561057,4.761221-16.298498,4.761221-20.755602,0-31.130946-14.89337-31.130946-44.683058V33.695304h24.722385v48.345233c0,8.304009,.975728,14.284154,2.929151,17.94682,2.317969,4.274831,6.346657,6.409052,12.087045,6.409052,5.004416,0,9.033104-2.074283,12.086063-6.226287,3.172837-4.637904,4.761712-11.290642,4.761712-19.960673V33.512048Z"/><path d="M469.629493,101.452178c4.3952,4.640852,9.706189,5.859775,15.931985,3.662175l4.578947,19.961164c-4.518026,1.22138-9.888954,1.831088-16.115733,1.831088-8.913225,0-16.481262-2.806816-22.707059-8.423887-3.785984-3.416524-6.226779-7.385272-7.325333-11.903298-.85585-3.662175-1.282302-10.254975-1.282302-19.777417V53.838987h-14.649683v-20.876462h14.649683V0h23.074553V32.962525h21.791269v20.876462h-21.791269v34.610848c0,1.831579,.059939,3.359532,.182765,4.578456,.48639,3.542297,1.70777,6.349113,3.662175,8.423887Z"/><g><path d="M155.723824,30.611314c13.099203,0,23.832175,4.183858,32.200866,12.552549,8.851895,8.977332,13.280771,20.802148,13.280771,35.475911,0,15.281916-4.428876,27.351261-13.280771,36.203156-8.248623,8.12709-18.98257,12.189414-32.200866,12.189414-13.221224,0-23.954196-4.062325-32.200866-12.189414-8.854823-8.851895-13.280771-20.92124-13.280771-36.203156,0-14.673763,4.425947-26.498578,13.280771-35.475911,8.487784-8.368691,19.221731-12.552549,32.200866-12.552549Zm0,78.410236c7.277335,0,12.91666-2.97048,16.91895-8.91437,3.639156-5.335736,5.457757-12.490562,5.457757-21.467407,0-8.851895-1.818602-15.88714-5.457757-21.103784-4.00229-5.699359-9.641615-8.550259-16.91895-8.550259-7.399356,0-13.160702,2.728879-17.283061,8.186636-3.883198,5.216156-5.821868,12.251401-5.821868,21.103296,0,8.854823,2.001145,16.072124,6.004412,21.649462,4.121383,6.06591,9.823182,9.096425,17.100517,9.096425Z"/><path d="M100.00011,118.114115c1.015521,.078951,6.725631,.428367,10.673286-3.591397,.000029-.000036,4.792549-4.880074,3.198183-13.488725-.158118-.85376-.389107-1.799898-.389116-1.799937-.126762-.519208-.243227-.944068-.323988-1.228925,6.001025,14.932471,12.472294,19.338466,17.372625,20.525817,2.463971,.597021,5.219745,.547235,5.572784,1.852979,.638548,2.361694-6.942212,7.8299-14.368687,8.597859-11.515074,1.190749-20.324073-9.160224-21.735086-10.867672Z"/><path d="M211.103852,39.641323c-1.016875-.059001-6.732744-.296263-10.600732,3.800217-.000028,.000037-4.695832,4.97321-2.932788,13.548905,.174847,.850492,.424363,1.791913,.424373,1.791952,.136929,.516619,.261711,.939111,.348049,1.222328-6.292987-14.811796-12.849497-19.089914-17.77219-20.180845-2.475215-.548539-5.229481-.444668-5.608083-1.74323-.684784-2.348705,6.787177-7.964664,14.197146-8.878254,11.489482-1.416556,20.499968,8.759506,21.944226,10.438927Z"/></g></svg>